# xmcd
#
# Track frame offsets: 
#        183
#        19808
#        51233
#        66320
#
# Disc length: 1145 seconds
#
# Revision: 2
# Processed by: cddbd v1.5.2PL0 Copyright (c) Steve Scherf et al.
# Submitted via: ExactAudioCopy v0.95b4
#
DISCID=33047704
DTITLE=Ice MC - Think About The Way (maxicd)
DYEAR=1994
DGENRE=
TTITLE0=Think About The Way (Radio Mix)
TTITLE1=Think About The Way (Extended Mix)
TTITLE2=Think About The Way (Doop Dibby Dub Mix)
TTITLE3=Think About The Way (Acapella)
EXTD=
EXTT0=
EXTT1=
EXTT2=
EXTT3=
PLAYORDER=
